<svg width="20" height="20" viewBox="0 0 20 20" fill="none" xmlns="http://www.w3.org/2000/svg">
<path d="M11.2926 2.21337C11.2676 1.92962 11.1226 0.863369 10.3367 0.715453C10.1484 0.680036 9.8038 0.890869 10.5813 1.4517C10.4963 1.38837 9.8163 0.900453 9.67005 1.3992C9.63422 1.52087 9.55339 1.7492 10.3196 1.96129C10.3196 1.96129 9.66755 1.75087 9.63672 2.13504C9.84297 2.10462 10.0513 2.08337 10.2646 2.08337C10.6171 2.08337 10.9601 2.13129 11.2926 2.21337Z" fill="#FFC107"/>
<path d="M14.7735 8.20583C14.674 7.87458 14.4402 6.51 14.4402 6.51C14.0865 4.23083 12.369 2.5 10.2985 2.5C7.97271 2.5 6.0873 4.68333 6.0873 7.37667C6.0873 7.56 6.09896 7.74 6.11646 7.91792C6.14188 7.92042 6.16771 7.92667 6.19188 7.93958C7.16271 8.43333 8.05896 10.0829 7.6823 11.2329C7.48021 11.8492 6.8873 12.5025 5.28271 12.5025C4.94563 12.5025 4.56063 12.4717 4.12813 12.4075C3.22146 12.5029 3.4273 13.14 3.4273 13.14C4.10271 15.1667 6.57563 15.905 7.71688 16.1425L8.30813 17.9167H7.76396C7.64896 17.9167 7.55563 18.01 7.55563 18.125C7.55563 18.24 7.64896 18.3333 7.76396 18.3333H8.51105L9.28355 19.1058C9.32396 19.1463 9.3773 19.1667 9.43063 19.1667C9.48396 19.1667 9.5373 19.1463 9.57813 19.1058C9.65938 19.0246 9.65938 18.8925 9.57813 18.8113L9.10021 18.3333H9.8473C9.9623 18.3333 10.0556 18.24 10.0556 18.125C10.0556 18.01 9.9623 17.9167 9.8473 17.9167H8.7473L8.18396 16.2267C8.25521 16.2371 8.30396 16.2433 8.30396 16.2433C9.26605 16.4038 10.0935 16.3858 10.8102 16.2558L11.2248 17.5H10.6806C10.5656 17.5 10.4723 17.5933 10.4723 17.7083C10.4723 17.8233 10.5656 17.9167 10.6806 17.9167H11.4277L12.2002 18.6892C12.2406 18.7296 12.294 18.75 12.3473 18.75C12.4006 18.75 12.454 18.7296 12.4948 18.6892C12.576 18.6079 12.576 18.4758 12.4948 18.3946L12.0169 17.9167H12.764C12.879 17.9167 12.9723 17.8233 12.9723 17.7083C12.9723 17.5933 12.879 17.5 12.764 17.5H11.664L11.2198 16.1675C12.8731 15.7413 13.854 14.6833 14.3906 13.845C14.9348 12.7304 15.5756 10.88 14.7735 8.20583Z" fill="#FFC107"/>
<path d="M7.28658 11.1029C7.60074 10.1433 6.83491 8.8354 6.12033 8.37915C5.53324 9.20665 4.49783 10.7929 4.22949 11.9975C5.92908 12.2404 7.01574 11.9296 7.28658 11.1029Z" fill="#FFC107"/>
<path d="M15.3263 8.94995C15.5517 10.4779 15.483 11.6929 15.2676 12.6483C16.9434 12.3112 16.6867 10.6204 15.3263 8.94995Z" fill="#FFC107"/>
<path d="M9.99967 7.08333C10.2298 7.08333 10.4163 6.89679 10.4163 6.66667C10.4163 6.43655 10.2298 6.25 9.99967 6.25C9.76956 6.25 9.58301 6.43655 9.58301 6.66667C9.58301 6.89679 9.76956 7.08333 9.99967 7.08333Z" fill="#212121"/>
<path d="M12.9167 7.08333C13.1468 7.08333 13.3333 6.89679 13.3333 6.66667C13.3333 6.43655 13.1468 6.25 12.9167 6.25C12.6865 6.25 12.5 6.43655 12.5 6.66667C12.5 6.89679 12.6865 7.08333 12.9167 7.08333Z" fill="#212121"/>
<path d="M10.7838 7.62751L11.4213 7.31293C11.4508 7.29835 11.4854 7.29876 11.515 7.31376L12.1292 7.6296C12.2038 7.66793 12.2046 7.77459 12.1308 7.81418L11.5279 8.13709C11.4979 8.15293 11.4625 8.15376 11.4321 8.13834L10.7833 7.81418C10.7063 7.77543 10.7063 7.66543 10.7838 7.62751Z" fill="#C62828"/>
</svg>
