<svg width="20" height="20" viewBox="0 0 20 20" fill="none" xmlns="http://www.w3.org/2000/svg">
<g clip-path="url(#clip0_1_3711)">
<path d="M10 20C15.5228 20 20 15.5228 20 10C20 4.47715 15.5228 0 10 0C4.47715 0 0 4.47715 0 10C0 15.5228 4.47715 20 10 20Z" fill="#1B9DF0"/>
<path d="M8.17035 15.2751C12.6054 15.2751 15.0304 11.6001 15.0304 8.4151C15.0304 8.3101 15.0304 8.2051 15.0254 8.1051C15.4954 7.7651 15.9054 7.3401 16.2304 6.8551C15.8004 7.0451 15.3354 7.1751 14.8454 7.2351C15.3454 6.9351 15.7254 6.4651 15.9054 5.9001C15.4404 6.1751 14.9254 6.3751 14.3754 6.4851C13.9354 6.0151 13.3104 5.7251 12.6154 5.7251C11.2854 5.7251 10.2054 6.8051 10.2054 8.1351C10.2054 8.3251 10.2254 8.5101 10.2704 8.6851C8.26535 8.5851 6.49035 7.6251 5.30035 6.1651C5.09535 6.5201 4.97535 6.9351 4.97535 7.3751C4.97535 8.2101 5.40035 8.9501 6.05035 9.3801C5.65535 9.3701 5.28535 9.2601 4.96035 9.0801C4.96035 9.0901 4.96035 9.1001 4.96035 9.1101C4.96035 10.2801 5.79035 11.2501 6.89535 11.4751C6.69535 11.5301 6.48035 11.5601 6.26035 11.5601C6.10535 11.5601 5.95535 11.5451 5.80535 11.5151C6.11035 12.4751 7.00035 13.1701 8.05535 13.1901C7.23035 13.8351 6.19035 14.2201 5.06035 14.2201C4.86535 14.2201 4.67535 14.2101 4.48535 14.1851C5.54035 14.8751 6.81035 15.2751 8.17035 15.2751Z" fill="white"/>
</g>
<defs>
<clipPath id="clip0_1_3711">
<rect width="20" height="20" fill="white"/>
</clipPath>
</defs>
</svg>
