<svg width="28" height="24" viewBox="0 0 28 24" fill="none" xmlns="http://www.w3.org/2000/svg">
<path d="M27.0604 3.7389L25.0976 3.73881V1.70707C25.0976 1.24191 24.7573 0.846708 24.2972 0.777886C24.2169 0.765819 22.3048 0.488082 20.0023 0.907044C17.4355 1.37409 15.3884 2.52585 14 4.26703C12.6115 2.52585 10.5644 1.37409 7.9976 0.907044C5.69501 0.488177 3.78291 0.765819 3.70268 0.777886C3.24262 0.846802 2.90228 1.24201 2.90228 1.70707V3.73881H0.939552C0.420753 3.73881 0 4.15956 0 4.67845V22.3839C0 22.6881 0.147259 22.9735 0.395298 23.1498C0.643338 23.3261 0.96133 23.3714 1.24859 23.2712C1.31911 23.2468 8.3599 20.8439 13.61 23.2387C13.8578 23.3518 14.1422 23.3518 14.39 23.2387C19.6254 20.8507 26.6813 23.247 26.7514 23.2712C26.8521 23.3063 26.9564 23.3236 27.0603 23.3236C27.2529 23.3236 27.4435 23.2644 27.6047 23.1499C27.8527 22.9736 28 22.6882 28 22.384V4.67855C27.9999 4.15965 27.5792 3.7389 27.0604 3.7389ZM1.8792 21.1267V5.61801H2.90228V18.1309C2.90228 18.4039 3.02173 18.6631 3.22829 18.8416C3.43484 19.0201 3.70956 19.1001 3.97957 19.0602C4.03142 19.0527 8.11318 18.4923 11.0953 20.5384C7.42186 19.9102 3.74529 20.6368 1.8792 21.1267ZM13.0604 19.691C11.7469 18.5043 10.0361 17.7018 7.9976 17.3309C7.01657 17.1524 6.10643 17.1003 5.37862 17.1003C5.16254 17.1003 4.96249 17.1049 4.78157 17.1122V2.56988H4.78148C6.58733 2.48843 10.9803 2.6815 13.0604 6.2077V19.691ZM14.9395 6.20779C17.0122 2.69668 21.412 2.49484 23.2184 2.57224V17.1122C22.4281 17.0803 21.2745 17.0994 20.0023 17.3309C17.9638 17.7018 16.253 18.5042 14.9395 19.691V6.20779ZM16.9015 20.5389C19.884 18.4916 23.9679 19.0526 24.0188 19.0601C24.2895 19.1008 24.564 19.0212 24.7712 18.8428C24.9785 18.6643 25.0976 18.4044 25.0976 18.1309V5.6181H26.1207V21.1267C24.254 20.6366 20.576 19.9097 16.9015 20.5389Z" fill="#484848"/>
</svg>
