<svg width="28" height="28" viewBox="0 0 28 28" fill="none" xmlns="http://www.w3.org/2000/svg">
<path d="M20.9817 15.0937C20.9817 15.6977 20.492 16.1874 19.8879 16.1874H18.8306C18.2265 16.1874 17.7369 15.6977 17.7369 15.0937C17.7369 14.4896 18.2265 13.9999 18.8306 13.9999H19.8879C20.492 13.9999 20.9817 14.4896 20.9817 15.0937ZM15.0208 13.9999H7.54683C6.94276 13.9999 6.45309 14.4896 6.45309 15.0937C6.45309 15.6977 6.94276 16.1874 7.54683 16.1874H15.0208C15.6248 16.1874 16.1145 15.6977 16.1145 15.0937C16.1145 14.4896 15.6248 13.9999 15.0208 13.9999ZM20.453 7.54683H7.54683C6.94276 7.54683 6.45309 8.0365 6.45309 8.64057C6.45309 9.24465 6.94276 9.73432 7.54683 9.73432H20.453C21.0571 9.73432 21.5467 9.24465 21.5467 8.64057C21.5467 8.0365 21.0571 7.54683 20.453 7.54683ZM27.9998 4.37497V19.3501C27.9998 21.7625 26.0372 23.7251 23.6249 23.7251H12.2746L8.76575 27.234C7.12306 28.8766 4.30208 27.7001 4.30208 25.3851V23.7245C1.92313 23.6856 0 21.7382 0 19.3501V4.37497C0 1.96261 1.96261 0 4.37497 0H23.6249C26.0373 0 27.9998 1.96261 27.9998 4.37497ZM25.8123 4.37497C25.8123 3.16879 24.831 2.18749 23.6249 2.18749H4.37497C3.16879 2.18749 2.18749 3.16879 2.18749 4.37497V19.3501C2.18749 20.5563 3.16879 21.5376 4.37497 21.5376C5.54096 21.5376 6.48956 22.4862 6.48956 23.6522V25.3851C6.48956 25.7635 6.95058 25.9556 7.21893 25.6872L10.7491 22.157C11.1486 21.7576 11.6796 21.5377 12.2444 21.5377H23.6249C24.8311 21.5377 25.8124 20.5564 25.8124 19.3502V4.37497H25.8123Z" fill="#484848"/>
</svg>
