<svg width="167" height="86" viewBox="0 0 167 86" fill="none" xmlns="http://www.w3.org/2000/svg">
<g clip-path="url(#clip0_1_3091)">
<path fill-rule="evenodd" clip-rule="evenodd" d="M32.5655 46.8019C40.3731 36.4679 21.3954 21.4655 8.14153 37.2781C12.9333 25.638 2.76971 31.4248 0.307424 34.5131C0.126856 34.3043 0.301357 33.9158 0.384229 33.745C0.467102 33.5743 5.72517 24.4587 19.6623 23.3764C19.6623 23.3764 13.0846 13.5454 19.7391 0.104492C19.2918 5.17362 20.3252 17.1129 26.9587 21.3795C25.5161 17.809 25.7375 14.607 26.2675 12.9309C26.3993 13.1872 26.5015 13.489 26.6339 13.8796C27.1196 15.3135 28.0108 17.9444 32.2583 23.914C34.5074 26.9917 35.7468 28.3661 37.1738 29.828C43.3306 36.1357 41.6757 50.3012 32.5655 46.8019ZM13.6715 68.2305C14.0844 70.5699 16.6792 80.8964 33.1799 81.9017C10.3137 70.8459 12.5061 33.0117 33.1799 40.8111C29.7614 28.4488 14.7958 29.6311 9.83125 38.0461C9.65421 38.1677 9.36197 38.684 9.60083 38.6606C9.95606 38.5262 11.2137 38.1997 11.2137 38.1997C7.84676 40.5696 7.45029 42.1168 7.45029 42.1168C5.19599 46.453 5.29976 49.9509 5.29976 49.9509C5.23479 50.0964 5.30259 50.2308 5.34608 50.2951C4.23948 51.64 5.37656 50.3349 5.37656 50.3349C5.37656 50.3349 5.36321 50.3204 5.34608 50.2951L5.37656 50.2581C6.53424 48.8526 7.6039 48.8756 7.6039 48.8756C4.25191 51.1167 5.60698 56.0953 5.60698 56.0953C6.00191 59.1905 7.75751 63.3149 7.75751 63.3149C7.86927 63.6251 8.14154 63.5454 8.14154 63.5454C8.31335 60.8447 9.52403 59.4747 9.52403 59.4747C8.36681 65.5999 10.0617 67.7696 10.0617 67.7696C11.8517 70.9749 14.5163 73.2996 14.5163 73.2996C13.6364 70.4838 13.6715 68.2305 13.6715 68.2305ZM32.9495 40.8111C20.1395 42.7235 17.3377 66.5844 33.6408 81.6713L34.0248 82.0553C6.63447 61.7298 18.9782 37.6046 32.9495 40.8111ZM35.4073 26.1414C32.3493 22.1063 34.6359 18.5136 37.0202 17.3088C35.4957 20.7302 36.1964 24.4363 37.3274 24.7589C39.0272 22.8595 40.5128 24.4638 40.3228 24.7589C37.97 24.3876 39.4011 30.9033 39.4011 30.9033C38.2068 29.0323 37.388 28.2062 36.5734 27.3842C36.1961 27.0035 35.8197 26.6237 35.4073 26.1414Z" fill="url(#paint0_linear_1_3091)"/>
</g>
<path d="M53.7614 36.2476H56.9474L61.3394 49.0276H58.3154L57.3254 46.1656H53.3474L52.3754 49.0276H49.3514L53.7614 36.2476ZM56.8394 44.1316L55.3454 39.2176L53.8154 44.1316H56.8394ZM65.859 49.2076C65.055 49.2076 64.269 49.0756 63.501 48.8116C62.733 48.5476 62.085 48.1576 61.557 47.6416L62.547 45.8236C63.123 46.2436 63.681 46.5616 64.221 46.7776C64.773 46.9936 65.289 47.1016 65.769 47.1016C66.141 47.1016 66.429 47.0416 66.633 46.9216C66.837 46.8016 66.939 46.6156 66.939 46.3636C66.939 46.1836 66.879 46.0456 66.759 45.9496C66.639 45.8416 66.453 45.7456 66.201 45.6616C65.961 45.5776 65.661 45.4876 65.301 45.3916C64.581 45.1516 63.981 44.9176 63.501 44.6896C63.021 44.4616 62.661 44.1856 62.421 43.8616C62.181 43.5256 62.061 43.0936 62.061 42.5656C62.061 41.9296 62.217 41.3776 62.529 40.9096C62.853 40.4296 63.309 40.0576 63.897 39.7936C64.485 39.5296 65.187 39.3976 66.003 39.3976C66.651 39.3976 67.281 39.4996 67.893 39.7036C68.517 39.9076 69.099 40.2496 69.639 40.7296L68.523 42.5296C67.983 42.1576 67.503 41.8876 67.083 41.7196C66.663 41.5516 66.255 41.4676 65.859 41.4676C65.655 41.4676 65.469 41.4916 65.301 41.5396C65.133 41.5876 64.995 41.6716 64.887 41.7916C64.791 41.8996 64.743 42.0436 64.743 42.2236C64.743 42.4036 64.791 42.5476 64.887 42.6556C64.995 42.7636 65.157 42.8596 65.373 42.9436C65.601 43.0156 65.883 43.1056 66.219 43.2136C66.999 43.4416 67.647 43.6756 68.163 43.9156C68.679 44.1436 69.063 44.4316 69.315 44.7796C69.579 45.1156 69.711 45.5656 69.711 46.1296C69.711 47.0896 69.363 47.8456 68.667 48.3976C67.983 48.9376 67.047 49.2076 65.859 49.2076ZM71.1882 49.0276V39.5776H74.0682V49.0276H71.1882ZM71.1882 38.4976V35.8876H74.0682V38.4976H71.1882ZM75.4458 46.2016C75.4458 45.5776 75.6198 45.0316 75.9678 44.5636C76.3158 44.0956 76.7958 43.7296 77.4078 43.4656C78.0198 43.1896 78.7218 43.0516 79.5138 43.0516C79.8978 43.0516 80.2758 43.0876 80.6478 43.1596C81.0198 43.2196 81.3438 43.3096 81.6198 43.4296V43.0156C81.6198 42.4996 81.4638 42.1036 81.1518 41.8276C80.8398 41.5516 80.3658 41.4136 79.7298 41.4136C79.2018 41.4136 78.7038 41.5036 78.2358 41.6836C77.7798 41.8636 77.2938 42.1216 76.7778 42.4576L75.9138 40.6216C76.5378 40.2136 77.1858 39.9076 77.8578 39.7036C78.5418 39.4996 79.2618 39.3976 80.0178 39.3976C81.4338 39.3976 82.5318 39.7396 83.3118 40.4236C84.1038 41.0956 84.4998 42.0736 84.4998 43.3576V45.8236C84.4998 46.1116 84.5418 46.3156 84.6258 46.4356C84.7218 46.5436 84.8838 46.6096 85.1118 46.6336V49.0276C84.8718 49.0756 84.6438 49.1116 84.4278 49.1356C84.2238 49.1596 84.0438 49.1716 83.8878 49.1716C83.3478 49.1716 82.9338 49.0636 82.6458 48.8476C82.3698 48.6316 82.1958 48.3376 82.1238 47.9656L82.0698 47.5516C81.6498 48.0916 81.1458 48.5056 80.5578 48.7936C79.9818 49.0696 79.3758 49.2076 78.7398 49.2076C78.1158 49.2076 77.5518 49.0756 77.0478 48.8116C76.5558 48.5476 76.1658 48.1876 75.8778 47.7316C75.5898 47.2756 75.4458 46.7656 75.4458 46.2016ZM81.1698 46.5616C81.3018 46.4536 81.4098 46.3336 81.4938 46.2016C81.5778 46.0696 81.6198 45.9436 81.6198 45.8236V44.9776C81.3798 44.8816 81.1098 44.8096 80.8098 44.7616C80.5218 44.7016 80.2518 44.6716 79.9998 44.6716C79.4718 44.6716 79.0338 44.7916 78.6858 45.0316C78.3378 45.2596 78.1638 45.5656 78.1638 45.9496C78.1638 46.1656 78.2238 46.3636 78.3438 46.5436C78.4638 46.7236 78.6258 46.8676 78.8298 46.9756C79.0458 47.0836 79.2978 47.1376 79.5858 47.1376C79.8738 47.1376 80.1618 47.0836 80.4498 46.9756C80.7378 46.8676 80.9778 46.7296 81.1698 46.5616ZM95.6947 49.0276H92.8147V43.7176C92.8147 43.0936 92.6947 42.6436 92.4547 42.3676C92.2267 42.0796 91.9207 41.9356 91.5367 41.9356C91.2727 41.9356 91.0027 42.0076 90.7267 42.1516C90.4507 42.2956 90.1987 42.4936 89.9707 42.7456C89.7547 42.9976 89.5867 43.2856 89.4667 43.6096V49.0276H86.5867V39.5776H89.1787V41.1616C89.4187 40.7896 89.7187 40.4716 90.0787 40.2076C90.4387 39.9436 90.8527 39.7456 91.3207 39.6136C91.7887 39.4696 92.2987 39.3976 92.8507 39.3976C93.4627 39.3976 93.9547 39.5116 94.3267 39.7396C94.7107 39.9556 94.9987 40.2436 95.1907 40.6036C95.3947 40.9636 95.5267 41.3536 95.5867 41.7736C95.6587 42.1816 95.6947 42.5836 95.6947 42.9796V49.0276ZM111.254 38.8396H107.366V49.0276H104.414V38.8396H100.508V36.2476H111.254V38.8396ZM117.876 42.0436C117.18 42.0436 116.55 42.1576 115.986 42.3856C115.422 42.6016 115.014 42.9256 114.762 43.3576V49.0276H111.882V39.5776H114.528V41.4856C114.852 40.8496 115.272 40.3516 115.788 39.9916C116.304 39.6316 116.844 39.4456 117.408 39.4336C117.54 39.4336 117.636 39.4336 117.696 39.4336C117.768 39.4336 117.828 39.4396 117.876 39.4516V42.0436ZM118.424 46.2016C118.424 45.5776 118.598 45.0316 118.946 44.5636C119.294 44.0956 119.774 43.7296 120.386 43.4656C120.998 43.1896 121.7 43.0516 122.492 43.0516C122.876 43.0516 123.254 43.0876 123.626 43.1596C123.998 43.2196 124.322 43.3096 124.598 43.4296V43.0156C124.598 42.4996 124.442 42.1036 124.13 41.8276C123.818 41.5516 123.344 41.4136 122.708 41.4136C122.18 41.4136 121.682 41.5036 121.214 41.6836C120.758 41.8636 120.272 42.1216 119.756 42.4576L118.892 40.6216C119.516 40.2136 120.164 39.9076 120.836 39.7036C121.52 39.4996 122.24 39.3976 122.996 39.3976C124.412 39.3976 125.51 39.7396 126.29 40.4236C127.082 41.0956 127.478 42.0736 127.478 43.3576V45.8236C127.478 46.1116 127.52 46.3156 127.604 46.4356C127.7 46.5436 127.862 46.6096 128.09 46.6336V49.0276C127.85 49.0756 127.622 49.1116 127.406 49.1356C127.202 49.1596 127.022 49.1716 126.866 49.1716C126.326 49.1716 125.912 49.0636 125.624 48.8476C125.348 48.6316 125.174 48.3376 125.102 47.9656L125.048 47.5516C124.628 48.0916 124.124 48.5056 123.536 48.7936C122.96 49.0696 122.354 49.2076 121.718 49.2076C121.094 49.2076 120.53 49.0756 120.026 48.8116C119.534 48.5476 119.144 48.1876 118.856 47.7316C118.568 47.2756 118.424 46.7656 118.424 46.2016ZM124.148 46.5616C124.28 46.4536 124.388 46.3336 124.472 46.2016C124.556 46.0696 124.598 45.9436 124.598 45.8236V44.9776C124.358 44.8816 124.088 44.8096 123.788 44.7616C123.5 44.7016 123.23 44.6716 122.978 44.6716C122.45 44.6716 122.012 44.7916 121.664 45.0316C121.316 45.2596 121.142 45.5656 121.142 45.9496C121.142 46.1656 121.202 46.3636 121.322 46.5436C121.442 46.7236 121.604 46.8676 121.808 46.9756C122.024 47.0836 122.276 47.1376 122.564 47.1376C122.852 47.1376 123.14 47.0836 123.428 46.9756C123.716 46.8676 123.956 46.7296 124.148 46.5616ZM134.083 49.2076C133.279 49.2076 132.565 49.0756 131.941 48.8116C131.317 48.5476 130.783 48.1876 130.339 47.7316C129.907 47.2756 129.577 46.7536 129.349 46.1656C129.121 45.5776 129.007 44.9536 129.007 44.2936C129.007 43.4296 129.205 42.6256 129.601 41.8816C130.009 41.1376 130.591 40.5376 131.347 40.0816C132.103 39.6256 133.015 39.3976 134.083 39.3976C135.163 39.3976 136.075 39.6316 136.819 40.0996C137.575 40.5556 138.139 41.1556 138.511 41.8996L135.703 42.7456C135.523 42.4576 135.289 42.2356 135.001 42.0796C134.725 41.9236 134.413 41.8456 134.065 41.8456C133.669 41.8456 133.309 41.9476 132.985 42.1516C132.673 42.3556 132.421 42.6376 132.229 42.9976C132.049 43.3576 131.959 43.7896 131.959 44.2936C131.959 44.7856 132.055 45.2176 132.247 45.5896C132.439 45.9616 132.691 46.2556 133.003 46.4716C133.315 46.6756 133.669 46.7776 134.065 46.7776C134.305 46.7776 134.527 46.7416 134.731 46.6696C134.947 46.5856 135.139 46.4716 135.307 46.3276C135.487 46.1836 135.625 46.0216 135.721 45.8416L138.529 46.7056C138.301 47.1856 137.971 47.6176 137.539 48.0016C137.119 48.3736 136.621 48.6676 136.045 48.8836C135.469 49.0996 134.815 49.2076 134.083 49.2076ZM146.185 49.0276L143.719 45.2476L142.711 46.2736V49.0276H139.831V35.8876H142.711V43.4836L145.915 39.5776H148.957L145.555 43.6456L149.245 49.0276H146.185ZM154.122 49.2076C153.318 49.2076 152.604 49.0816 151.98 48.8296C151.356 48.5656 150.822 48.2116 150.378 47.7676C149.946 47.3236 149.616 46.8136 149.388 46.2376C149.16 45.6496 149.046 45.0376 149.046 44.4016C149.046 43.4896 149.244 42.6616 149.64 41.9176C150.048 41.1616 150.63 40.5556 151.386 40.0996C152.142 39.6316 153.054 39.3976 154.122 39.3976C155.19 39.3976 156.096 39.6256 156.84 40.0816C157.596 40.5376 158.172 41.1376 158.568 41.8816C158.964 42.6136 159.162 43.4116 159.162 44.2756C159.162 44.4436 159.15 44.6116 159.126 44.7796C159.114 44.9356 159.102 45.0736 159.09 45.1936H152.106C152.142 45.6136 152.256 45.9676 152.448 46.2556C152.652 46.5436 152.91 46.7656 153.222 46.9216C153.534 47.0656 153.864 47.1376 154.212 47.1376C154.644 47.1376 155.046 47.0356 155.418 46.8316C155.802 46.6276 156.066 46.3516 156.21 46.0036L158.658 46.6876C158.418 47.1796 158.076 47.6176 157.632 48.0016C157.2 48.3736 156.684 48.6676 156.084 48.8836C155.496 49.0996 154.842 49.2076 154.122 49.2076ZM152.034 43.4296H156.138C156.09 43.0336 155.976 42.6916 155.796 42.4036C155.616 42.1036 155.376 41.8756 155.076 41.7196C154.776 41.5516 154.446 41.4676 154.086 41.4676C153.714 41.4676 153.378 41.5516 153.078 41.7196C152.79 41.8756 152.556 42.1036 152.376 42.4036C152.196 42.6916 152.082 43.0336 152.034 43.4296ZM166.462 42.0436C165.766 42.0436 165.136 42.1576 164.572 42.3856C164.008 42.6016 163.6 42.9256 163.348 43.3576V49.0276H160.468V39.5776H163.114V41.4856C163.438 40.8496 163.858 40.3516 164.374 39.9916C164.89 39.6316 165.43 39.4456 165.994 39.4336C166.126 39.4336 166.222 39.4336 166.282 39.4336C166.354 39.4336 166.414 39.4396 166.462 39.4516V42.0436Z" fill="black"/>
<defs>
<linearGradient id="paint0_linear_1_3091" x1="0.228516" y1="0.104492" x2="65.4329" y2="32.4134" gradientUnits="userSpaceOnUse">
<stop stop-color="#FDD819"/>
<stop offset="1" stop-color="#E80505"/>
</linearGradient>
<clipPath id="clip0_1_3091">
<rect width="50" height="85.9447" fill="white" transform="translate(0 0.0275879)"/>
</clipPath>
</defs>
</svg>
