<svg width="28" height="28" viewBox="0 0 28 28" fill="none" xmlns="http://www.w3.org/2000/svg">
<path d="M21 9.33325C22.933 9.33325 24.5 7.76625 24.5 5.83325C24.5 3.90026 22.933 2.33325 21 2.33325C19.067 2.33325 17.5 3.90026 17.5 5.83325C17.5 7.76625 19.067 9.33325 21 9.33325Z" fill="black" stroke="black" stroke-width="2.33333" stroke-linecap="round" stroke-linejoin="round"/>
<path d="M7 17.5C8.933 17.5 10.5 15.933 10.5 14C10.5 12.067 8.933 10.5 7 10.5C5.067 10.5 3.5 12.067 3.5 14C3.5 15.933 5.067 17.5 7 17.5Z" fill="black" stroke="black" stroke-width="2.33333" stroke-linecap="round" stroke-linejoin="round"/>
<path d="M21 25.6667C22.933 25.6667 24.5 24.0997 24.5 22.1667C24.5 20.2338 22.933 18.6667 21 18.6667C19.067 18.6667 17.5 20.2338 17.5 22.1667C17.5 24.0997 19.067 25.6667 21 25.6667Z" fill="black" stroke="black" stroke-width="2.33333" stroke-linecap="round" stroke-linejoin="round"/>
<path d="M10.0215 15.7617L17.9898 20.4051" stroke="black" stroke-width="2.33333" stroke-linecap="round" stroke-linejoin="round"/>
<path d="M17.9782 7.59497L10.0215 12.2383" stroke="black" stroke-width="2.33333" stroke-linecap="round" stroke-linejoin="round"/>
</svg>
