<svg width="16" height="15" viewBox="0 0 16 15" fill="none" xmlns="http://www.w3.org/2000/svg">
<path d="M4.66634 14.1667H2.66634C2.31272 14.1667 1.97358 14.0262 1.72353 13.7762C1.47348 13.5261 1.33301 13.187 1.33301 12.8333V8.16668C1.33301 7.81306 1.47348 7.47392 1.72353 7.22387C1.97358 6.97382 2.31272 6.83334 2.66634 6.83334H4.66634M9.33301 5.50001V2.83334C9.33301 2.30291 9.12229 1.7942 8.74722 1.41913C8.37215 1.04406 7.86344 0.833344 7.33301 0.833344L4.66634 6.83334V14.1667H12.1863C12.5079 14.1703 12.8199 14.0576 13.0649 13.8493C13.31 13.6411 13.4715 13.3513 13.5197 13.0333L14.4397 7.03334C14.4687 6.84225 14.4558 6.64713 14.4019 6.46151C14.348 6.27589 14.2544 6.10421 14.1276 5.95835C14.0008 5.8125 13.8437 5.69597 13.6674 5.61682C13.4911 5.53768 13.2996 5.49782 13.1063 5.50001H9.33301Z" stroke="#646464" stroke-width="1.33333" stroke-linecap="round" stroke-linejoin="round"/>
</svg>
