<svg width="28" height="28" viewBox="0 0 28 28" fill="none" xmlns="http://www.w3.org/2000/svg">
<g clip-path="url(#clip0_1_296)">
<path d="M14 28C21.732 28 28 21.732 28 14C28 6.26801 21.732 0 14 0C6.26801 0 0 6.26801 0 14C0 21.732 6.26801 28 14 28Z" fill="#1B9DF0"/>
<path d="M11.4383 21.3849C17.6473 21.3849 21.0423 16.2399 21.0423 11.7809C21.0423 11.6339 21.0423 11.4869 21.0353 11.3469C21.6933 10.8709 22.2673 10.2759 22.7223 9.59689C22.1203 9.86289 21.4693 10.0449 20.7833 10.1289C21.4833 9.70889 22.0153 9.05089 22.2673 8.25989C21.6163 8.64489 20.8953 8.92489 20.1253 9.07889C19.5093 8.42089 18.6343 8.01489 17.6613 8.01489C15.7993 8.01489 14.2873 9.52689 14.2873 11.3889C14.2873 11.6549 14.3153 11.9139 14.3783 12.1589C11.5713 12.0189 9.0863 10.6749 7.4203 8.63089C7.1333 9.12789 6.9653 9.70889 6.9653 10.3249C6.9653 11.4939 7.5603 12.5299 8.4703 13.1319C7.9173 13.1179 7.3993 12.9639 6.9443 12.7119C6.9443 12.7259 6.9443 12.7399 6.9443 12.7539C6.9443 14.3919 8.1063 15.7499 9.6533 16.0649C9.3733 16.1419 9.0723 16.1839 8.7643 16.1839C8.5473 16.1839 8.3373 16.1629 8.1273 16.1209C8.5543 17.4649 9.8003 18.4379 11.2773 18.4659C10.1223 19.3689 8.6663 19.9079 7.0843 19.9079C6.8113 19.9079 6.5453 19.8939 6.2793 19.8589C7.7563 20.8249 9.5343 21.3849 11.4383 21.3849Z" fill="white"/>
</g>
<defs>
<clipPath id="clip0_1_296">
<rect width="28" height="28" fill="white"/>
</clipPath>
</defs>
</svg>
